<svg width="6" height="10" viewBox="0 0 6 10" fill="none" xmlns="http://www.w3.org/2000/svg">
<path id="Vector" d="M5.99999 4.97718C6.00056 5.07156 5.98165 5.16512 5.94434 5.25249C5.90704 5.33986 5.85207 5.41933 5.7826 5.48634L1.28491 9.7891C1.14375 9.92414 0.952306 10 0.752682 10C0.553059 10 0.361611 9.92414 0.220456 9.7891C0.0793003 9.65406 -2.31272e-08 9.47091 -3.14748e-08 9.27994C-3.98225e-08 9.08897 0.0793002 8.90582 0.220456 8.77078L4.19341 4.97718L0.227951 1.18359C0.105145 1.0464 0.0409728 0.869931 0.0482599 0.689447C0.055547 0.508965 0.133757 0.337757 0.267259 0.210041C0.400761 0.082325 0.579723 0.00750635 0.768384 0.000534978C0.957044 -0.00643639 1.14151 0.0549535 1.28491 0.172438L5.7826 4.47519C5.92109 4.60877 5.99916 4.78905 5.99999 4.97718Z" fill="#8C8885"/>
</svg>
