<svg width="10" height="6" viewBox="0 0 10 6" fill="none" xmlns="http://www.w3.org/2000/svg">
<path id="Vector" d="M4.97718 1.33137e-05C5.07156 -0.000556992 5.16512 0.018352 5.25249 0.0556564C5.33986 0.0929608 5.41933 0.147926 5.48634 0.217401L9.7891 4.71509C9.92414 4.85625 10 5.04769 10 5.24732C10 5.44694 9.92414 5.63839 9.7891 5.77954C9.65406 5.9207 9.47091 6 9.27994 6C9.08897 6 8.90582 5.9207 8.77078 5.77954L4.97718 1.80659L1.18359 5.77205C1.0464 5.89486 0.869931 5.95903 0.689447 5.95174C0.508965 5.94445 0.337757 5.86624 0.210041 5.73274C0.0823249 5.59924 0.00750632 5.42028 0.000534944 5.23162C-0.00643643 5.04296 0.0549535 4.85849 0.172438 4.71509L4.47519 0.217402C4.60877 0.0789146 4.78905 0.000841596 4.97718 1.33137e-05Z" fill="#8C8885"/>
</svg>
