<svg width="16" height="16" viewBox="0 0 16 16" fill="none" xmlns="http://www.w3.org/2000/svg">
<path d="M15.9442 0.871929L9.17507 15.6408C9.11843 15.7645 9.02238 15.866 8.90195 15.9293C8.78152 15.9926 8.6435 16.0142 8.50948 15.9908C8.37545 15.9673 8.25297 15.9001 8.16121 15.7997C8.06944 15.6992 8.01355 15.5712 8.00229 15.4356L7.42999 8.57008L0.56443 7.99779C0.428834 7.98652 0.300794 7.93064 0.200336 7.83887C0.0998774 7.7471 0.0326655 7.62463 0.00921189 7.4906C-0.0142418 7.35658 0.00738537 7.21856 0.0707109 7.09813C0.134036 6.9777 0.235489 6.88166 0.359203 6.82502L15.1282 0.055949C15.2424 0.00362503 15.3698 -0.0125117 15.4934 0.00970575C15.6171 0.0319232 15.7309 0.0914309 15.8197 0.180238C15.9085 0.269045 15.968 0.382899 15.9903 0.50651C16.0125 0.630121 15.9965 0.757756 15.9442 0.871929Z" fill="#D96C07"/>
</svg>
