<svg width="16" height="14" viewBox="0 0 16 14" fill="none" xmlns="http://www.w3.org/2000/svg">
<path d="M15.4677 2.66541C15.1483 2.33081 14.7072 2.13309 14.2053 2.13309H11.6806V2.10267C11.6806 1.72244 11.5285 1.35742 11.27 1.11408C11.0114 0.855521 10.6616 0.70343 10.2814 0.70343H5.71863C5.32319 0.70343 4.97338 0.855521 4.71483 1.11408C4.45627 1.37263 4.30418 1.72244 4.30418 2.10267V2.13309H1.79468C1.29278 2.13309 0.851711 2.33081 0.532319 2.66541C0.212928 2.9848 0 3.44107 0 3.92776V11.5019C0 12.0038 0.197719 12.4449 0.532319 12.7643C0.851711 13.0837 1.30798 13.2966 1.79468 13.2966H14.2053C14.7072 13.2966 15.1483 13.0989 15.4677 12.7643C15.7871 12.4449 16 11.9886 16 11.5019V3.92776C16 3.42586 15.8023 2.9848 15.4677 2.66541ZM15.2091 11.5019H15.1939C15.1939 11.7757 15.0875 12.019 14.9049 12.2015C14.7224 12.384 14.4791 12.4905 14.2053 12.4905H1.79468C1.52091 12.4905 1.27757 12.384 1.09506 12.2015C0.912548 12.019 0.806084 11.7757 0.806084 11.5019V3.92776C0.806084 3.654 0.912548 3.41065 1.09506 3.22814C1.27757 3.04564 1.52091 2.93917 1.79468 2.93917H4.73004C4.95818 2.93917 5.14068 2.75666 5.14068 2.52853V2.08746C5.14068 1.92016 5.20152 1.76807 5.30799 1.66161C5.41445 1.55514 5.56654 1.4943 5.73384 1.4943H10.2814C10.4487 1.4943 10.6008 1.55514 10.7072 1.66161C10.8137 1.76807 10.8745 1.92016 10.8745 2.08746V2.52853C10.8745 2.75666 11.057 2.93917 11.2852 2.93917H14.2205C14.4943 2.93917 14.7376 3.04564 14.9202 3.22814C15.1027 3.41065 15.2091 3.654 15.2091 3.92776V11.5019Z" fill="black"/>
<path d="M7.99999 3.97345C6.96577 3.97345 6.0228 4.39931 5.3536 5.06851C4.66919 5.75292 4.25854 6.68067 4.25854 7.71489C4.25854 8.74911 4.6844 9.69208 5.3536 10.3613C6.03801 11.0457 6.96577 11.4563 7.99999 11.4563C9.03421 11.4563 9.97718 11.0305 10.6464 10.3613C11.3308 9.67687 11.7414 8.74911 11.7414 7.71489C11.7414 6.68067 11.3156 5.73771 10.6464 5.06851C9.97718 4.39931 9.03421 3.97345 7.99999 3.97345ZM10.0684 9.79854C9.53611 10.3157 8.80607 10.6503 7.99999 10.6503C7.19391 10.6503 6.46387 10.3157 5.93155 9.79854C5.39923 9.26622 5.07984 8.53619 5.07984 7.7301C5.07984 6.92402 5.41444 6.19398 5.93155 5.66166C6.46387 5.12934 7.19391 4.80995 7.99999 4.80995C8.80607 4.80995 9.53611 5.14455 10.0684 5.66166C10.6007 6.19398 10.9201 6.92402 10.9201 7.7301C10.9354 8.53619 10.6007 9.26622 10.0684 9.79854Z" fill="black"/>
<path d="M13.4144 5.44862C13.826 5.44862 14.1597 5.11497 14.1597 4.70338C14.1597 4.29179 13.826 3.95813 13.4144 3.95813C13.0028 3.95813 12.6692 4.29179 12.6692 4.70338C12.6692 5.11497 13.0028 5.44862 13.4144 5.44862Z" fill="black"/>
</svg>
