<svg width="40" height="40" viewBox="0 0 40 40" fill="none" xmlns="http://www.w3.org/2000/svg">
<rect width="40" height="40" rx="20" fill="#FFF3EB"/>
<path d="M26.3384 14.0872L22.6298 10.5787C22.2353 10.2055 21.719 10 21.176 10H14.1154C12.949 10 12 10.949 12 12.1154V27.5769C12 28.7433 12.949 29.6923 14.1154 29.6923H24.8846C26.051 29.6923 27 28.7433 27 27.5769V15.6239C27 15.0451 26.7588 14.485 26.3384 14.0872ZM25.2177 14.6154H22.3462C22.2401 14.6154 22.1538 14.5291 22.1538 14.4231V11.7168L25.2177 14.6154ZM24.8846 28.5385H14.1154C13.5852 28.5385 13.1538 28.1071 13.1538 27.5769V12.1154C13.1538 11.5852 13.5852 11.1538 14.1154 11.1538H21V14.4231C21 15.1653 21.6039 15.7692 22.3462 15.7692H25.8462V27.5769C25.8462 28.1071 25.4148 28.5385 24.8846 28.5385Z" fill="#D96C07"/>
<path d="M23.6154 17.6924H15.1538C14.8352 17.6924 14.5769 17.9507 14.5769 18.2693C14.5769 18.5879 14.8352 18.8462 15.1538 18.8462H23.6154C23.934 18.8462 24.1923 18.5879 24.1923 18.2693C24.1923 17.9507 23.934 17.6924 23.6154 17.6924Z" fill="#D96C07"/>
<path d="M23.6154 20.769H15.1538C14.8352 20.769 14.5769 21.0274 14.5769 21.346C14.5769 21.6646 14.8352 21.9229 15.1538 21.9229H23.6154C23.934 21.9229 24.1923 21.6646 24.1923 21.346C24.1923 21.0274 23.934 20.769 23.6154 20.769Z" fill="#D96C07"/>
<path d="M17.9508 23.8462H15.1538C14.8352 23.8462 14.5769 24.1045 14.5769 24.4231C14.5769 24.7417 14.8352 25 15.1538 25H17.9508C18.2694 25 18.5277 24.7417 18.5277 24.4231C18.5277 24.1045 18.2694 23.8462 17.9508 23.8462Z" fill="#D96C07"/>
</svg>
