<svg width="40" height="40" viewBox="0 0 40 40" fill="none" xmlns="http://www.w3.org/2000/svg">
<rect width="40" height="40" rx="20" fill="#FFF3EB"/>
<path d="M24.861 21.3054C24.5535 20.9852 24.1826 20.814 23.7894 20.814C23.3995 20.814 23.0253 20.982 22.7051 21.3023L21.7033 22.301C21.6208 22.2566 21.5384 22.2154 21.4591 22.1741C21.345 22.1171 21.2372 22.0632 21.1453 22.0061C20.2068 21.4101 19.354 20.6333 18.536 19.6283C18.1397 19.1273 17.8734 18.7057 17.68 18.2776C17.9399 18.0399 18.1809 17.7926 18.4155 17.5548C18.5043 17.466 18.593 17.3741 18.6818 17.2853C19.3476 16.6195 19.3476 15.7571 18.6818 15.0913L17.8163 14.2258C17.718 14.1275 17.6165 14.0261 17.5214 13.9246C17.3312 13.728 17.1315 13.5251 16.9254 13.3349C16.6179 13.0305 16.2501 12.8688 15.8633 12.8688C15.4765 12.8688 15.1024 13.0305 14.7853 13.3349C14.7822 13.3381 14.7822 13.3381 14.779 13.3412L13.701 14.4287C13.2952 14.8345 13.0638 15.3291 13.013 15.903C12.937 16.8287 13.2096 17.6911 13.4189 18.2554C13.9325 19.6409 14.6997 20.925 15.8443 22.301C17.2329 23.9591 18.9038 25.2685 20.8124 26.1911C21.5416 26.5367 22.5149 26.9457 23.6024 27.0154C23.6689 27.0186 23.7387 27.0218 23.8021 27.0218C24.5345 27.0218 25.1496 26.7586 25.6315 26.2355C25.6346 26.2292 25.641 26.226 25.6441 26.2196C25.809 26.0199 25.9992 25.8392 26.199 25.6458C26.3353 25.5158 26.4748 25.3795 26.6111 25.2368C26.925 24.9102 27.0899 24.5298 27.0899 24.1398C27.0899 23.7467 26.9218 23.3694 26.6016 23.0524L24.861 21.3054ZM25.9961 24.6439C25.9929 24.6439 25.9929 24.6471 25.9961 24.6439C25.8724 24.7771 25.7456 24.8976 25.6093 25.0307C25.4032 25.2273 25.1939 25.4334 24.9974 25.6648C24.6772 26.0072 24.2999 26.1689 23.8053 26.1689C23.7577 26.1689 23.707 26.1689 23.6594 26.1657C22.7178 26.1055 21.8428 25.7377 21.1865 25.4239C19.392 24.5552 17.8163 23.3218 16.5069 21.7588C15.4258 20.4557 14.7029 19.251 14.2242 17.9574C13.9293 17.168 13.8215 16.5529 13.8691 15.9727C13.9008 15.6018 14.0434 15.2942 14.3066 15.0311L15.3877 13.95C15.5431 13.8041 15.7079 13.7249 15.8696 13.7249C16.0694 13.7249 16.2311 13.8453 16.3325 13.9468C16.3357 13.95 16.3389 13.9531 16.342 13.9563C16.5354 14.137 16.7193 14.3241 16.9127 14.5238C17.011 14.6253 17.1124 14.7267 17.2139 14.8314L18.0794 15.6969C18.4155 16.033 18.4155 16.3437 18.0794 16.6797C17.9875 16.7717 17.8987 16.8636 17.8068 16.9524C17.5405 17.225 17.2868 17.4787 17.011 17.726C17.0047 17.7323 16.9983 17.7355 16.9951 17.7418C16.7225 18.0145 16.7732 18.2808 16.8303 18.4615C16.8334 18.471 16.8366 18.4806 16.8398 18.4901C17.0649 19.0354 17.3819 19.549 17.8638 20.1609L17.867 20.1641C18.7421 21.242 19.6647 22.0822 20.6824 22.7258C20.8124 22.8082 20.9455 22.8748 21.0723 22.9382C21.1865 22.9953 21.2943 23.0492 21.3862 23.1063C21.3989 23.1126 21.4116 23.1221 21.4243 23.1284C21.5321 23.1823 21.6335 23.2077 21.7381 23.2077C22.0013 23.2077 22.1662 23.0428 22.2201 22.9889L23.3043 21.9046C23.4121 21.7969 23.5833 21.6669 23.7831 21.6669C23.9797 21.6669 24.1413 21.7905 24.2396 21.8983C24.2428 21.9015 24.2428 21.9015 24.246 21.9046L25.9929 23.6516C26.3195 23.975 26.3195 24.3079 25.9961 24.6439Z" fill="#D96C07"/>
<path d="M21.1072 15.5732C21.9379 15.7127 22.6924 16.1058 23.2948 16.7082C23.8972 17.3106 24.2872 18.0652 24.4298 18.8958C24.4647 19.1051 24.6454 19.2509 24.8515 19.2509C24.8769 19.2509 24.8991 19.2478 24.9244 19.2446C25.159 19.2065 25.3144 18.9846 25.2763 18.75C25.1051 17.745 24.6296 16.8287 23.9035 16.1027C23.1775 15.3766 22.2612 14.9011 21.2562 14.7299C21.0216 14.6918 20.8028 14.8472 20.7616 15.0786C20.7204 15.31 20.8726 15.5351 21.1072 15.5732Z" fill="#D96C07"/>
<path d="M27.9933 18.6264C27.7111 16.9715 26.9312 15.4655 25.7327 14.2671C24.5343 13.0686 23.0283 12.2887 21.3734 12.0065C21.1419 11.9653 20.9232 12.1238 20.8819 12.3553C20.8439 12.5899 20.9993 12.8087 21.2339 12.8499C22.7113 13.1003 24.0587 13.801 25.1304 14.8695C26.202 15.9411 26.8995 17.2885 27.1499 18.7659C27.1848 18.9752 27.3655 19.121 27.5716 19.121C27.597 19.121 27.6192 19.1179 27.6445 19.1147C27.876 19.0798 28.0345 18.8579 27.9933 18.6264Z" fill="#D96C07"/>
</svg>
