<svg width="40" height="40" viewBox="0 0 40 40" fill="none" xmlns="http://www.w3.org/2000/svg">
<rect width="40" height="40" rx="20" fill="#FFF3EB"/>
<path d="M15.0654 28H25.9346C27.074 28 28 27.0489 28 25.8785V15.3067C28 14.1363 27.074 13.1852 25.9346 13.1852H25.1154V12.5926C25.1154 12.2667 24.8557 12 24.5384 12C24.2211 12 23.9615 12.2667 23.9615 12.5926V13.1852H17.0385V12.5926C17.0385 12.2667 16.7788 12 16.4615 12C16.1442 12 15.8846 12.2667 15.8846 12.5926V13.1852H15.0654C13.926 13.1852 13 14.1363 13 15.3067V25.8785C13 27.0489 13.926 28 15.0654 28ZM14.1539 15.3067C14.1539 14.7911 14.5635 14.3704 15.0654 14.3704H15.8846V14.963C15.8846 15.2889 16.1442 15.5555 16.4615 15.5555C16.7788 15.5555 17.0384 15.2889 17.0384 14.963V14.3704H23.9615V14.963C23.9615 15.2889 24.2211 15.5555 24.5384 15.5555C24.8557 15.5555 25.1153 15.2889 25.1153 14.963V14.3704H25.9346C26.4365 14.3704 26.8461 14.7911 26.8461 15.3067V17.037H14.1539V15.3067ZM14.1539 18.2222H26.8462V25.8785C26.8462 26.3941 26.4366 26.8148 25.9347 26.8148H15.0654C14.5635 26.8148 14.1539 26.3941 14.1539 25.8785V18.2222Z" fill="#D96C07"/>
</svg>
