<svg width="16" height="18" viewBox="0 0 16 18" fill="none" xmlns="http://www.w3.org/2000/svg">
<path d="M2.375 3.375L3.15625 15.875C3.19336 16.5973 3.71875 17.125 4.40625 17.125H11.5938C12.284 17.125 12.7996 16.5973 12.8438 15.875L13.625 3.375" stroke="#030100" stroke-width="1.5" stroke-linecap="round" stroke-linejoin="round"/>
<path d="M1.125 3.375H14.875" stroke="#030100" stroke-width="1.5" stroke-miterlimit="10" stroke-linecap="round"/>
<path d="M5.5 3.375V1.8125C5.49964 1.68929 5.52365 1.56722 5.57063 1.45331C5.61762 1.33941 5.68666 1.23591 5.77379 1.14879C5.86091 1.06166 5.96441 0.992618 6.07831 0.945632C6.19222 0.898646 6.31429 0.874643 6.4375 0.875004H9.5625C9.68572 0.874643 9.80779 0.898646 9.9217 0.945632C10.0356 0.992618 10.1391 1.06166 10.2262 1.14879C10.3133 1.23591 10.3824 1.33941 10.4294 1.45331C10.4764 1.56722 10.5004 1.68929 10.5 1.8125V3.375" stroke="#030100" stroke-width="1.5" stroke-linecap="round" stroke-linejoin="round"/>
<path d="M8 5.875V14.625" stroke="#030100" stroke-width="1.5" stroke-linecap="round" stroke-linejoin="round"/>
<path d="M5.1875 5.875L5.5 14.625" stroke="#030100" stroke-width="1.5" stroke-linecap="round" stroke-linejoin="round"/>
<path d="M10.8125 5.875L10.5 14.625" stroke="#030100" stroke-width="1.5" stroke-linecap="round" stroke-linejoin="round"/>
</svg>
