<svg width="17" height="16" viewBox="0 0 17 16" fill="none" xmlns="http://www.w3.org/2000/svg">
<path d="M10.3307 1.6773L10.9856 1.05319C11.7595 0.315603 13.1065 0.315603 13.8805 1.05319L14.4088 1.55674C14.7958 1.92553 15.0116 2.41489 15.0116 2.93262C15.0116 3.45035 14.7958 3.94681 14.4088 4.30851L13.754 4.93262L10.3307 1.67021V1.6773ZM9.54186 2.42908L2.76233 8.89007C2.54651 9.09575 2.41256 9.36525 2.39023 9.65603L2.1893 11.734C2.16698 11.9965 2.26372 12.2518 2.45721 12.4433C2.63581 12.6135 2.86651 12.7057 3.11209 12.7057H3.19395L5.37442 12.5142C5.67953 12.4858 5.96233 12.3582 6.17814 12.1525L12.9577 5.69149L9.53442 2.42908H9.54186ZM16.5 14.9681C16.5 14.6773 16.247 14.4362 15.9419 14.4362H1.05814C0.753023 14.4362 0.5 14.6773 0.5 14.9681C0.5 15.2589 0.753023 15.5 1.05814 15.5H15.9419C16.247 15.5 16.5 15.2589 16.5 14.9681Z" fill="white"/>
</svg>
