<svg width="16" height="12" viewBox="0 0 16 12" fill="none" xmlns="http://www.w3.org/2000/svg">
<g id="Group 12">
<path id="Vector" d="M14.4247 11.5433H1.57525C1.15759 11.5428 0.757174 11.3766 0.461856 11.0813C0.166538 10.786 0.000438238 10.3855 0 9.96786V2.03213C0.000438238 1.61447 0.166538 1.21403 0.461856 0.918689C0.757174 0.623342 1.15759 0.457204 1.57525 0.456726H14.4247C14.8424 0.457204 15.2428 0.623342 15.5381 0.918689C15.8335 1.21403 15.9996 1.61447 16 2.03213V9.96786C15.9996 10.3855 15.8335 10.786 15.5381 11.0813C15.2428 11.3766 14.8424 11.5428 14.4247 11.5433ZM1.57525 1.05883C1.31722 1.05911 1.06983 1.16175 0.887388 1.34422C0.704943 1.52669 0.602343 1.77409 0.602104 2.03213V9.96786C0.602343 10.2259 0.704943 10.4733 0.887388 10.6558C1.06983 10.8382 1.31722 10.9409 1.57525 10.9412H14.4247C14.6828 10.9409 14.9302 10.8382 15.1126 10.6558C15.2951 10.4733 15.3977 10.2259 15.3979 9.96786V2.03213C15.3977 1.77409 15.2951 1.52669 15.1126 1.34422C14.9302 1.16175 14.6828 1.05911 14.4247 1.05883H1.57525Z" fill="#8C8885"/>
<path id="Vector_2" d="M8.00005 7.77169C7.92667 7.77173 7.8558 7.74496 7.80076 7.69642L0.54541 1.29185L0.943852 0.840271L8.00005 7.06963L15.0566 0.841024L15.455 1.2926L8.19965 7.69718C8.14447 7.74558 8.07346 7.77209 8.00005 7.77169Z" fill="#8C8885"/>
<path id="Vector_3" d="M0.381836 10.5978L5.2559 5.04436L5.70868 5.44175L0.834618 10.9952L0.381836 10.5978Z" fill="#8C8885"/>
<path id="Vector_4" d="M10.3066 5.43591L10.7594 5.03852L15.6336 10.5921L15.1808 10.9895L10.3066 5.43591Z" fill="#8C8885"/>
</g>
</svg>
