<svg width="40" height="40" viewBox="0 0 40 40" fill="none" xmlns="http://www.w3.org/2000/svg">
<rect width="40" height="40" rx="20" fill="#FFF3EB"/>
<path d="M17.0922 13.0011C16.763 13.0368 16.4472 13.0799 16.127 13.1332L16.1214 13.1341C14.6695 13.3907 13.3814 14.6779 13.1248 16.1289L13.1239 16.1345C13.0706 16.4544 13.0275 16.7699 12.9918 17.0992C12.9587 17.4047 13.1796 17.6789 13.4854 17.712C13.5059 17.7144 13.5259 17.7152 13.5461 17.7152C13.8267 17.7152 14.0678 17.5037 14.0989 17.2187C14.1323 16.9117 14.1724 16.6176 14.2219 16.3196C14.3072 15.8418 14.5699 15.3629 14.9625 14.9706C15.355 14.5783 15.8343 14.3156 16.3127 14.2303C16.6112 14.1808 16.9053 14.1407 17.2123 14.1073C17.5179 14.0742 17.7391 13.7997 17.706 13.4944C17.6729 13.1889 17.3984 12.968 17.0925 13.0011H17.0922Z" fill="#D96C07"/>
<path d="M27.9844 17.1044C27.9487 16.7754 27.9056 16.4596 27.8523 16.1397L27.8514 16.1342C27.5948 14.6835 26.3067 13.396 24.8551 13.1396L24.8496 13.1388C24.5288 13.0854 24.213 13.0424 23.8843 13.0066C23.5785 12.9735 23.304 13.1944 23.2709 13.5C23.2378 13.8055 23.4586 14.0797 23.7645 14.1128C24.0712 14.1459 24.3653 14.1864 24.6641 14.2359C25.1422 14.3211 25.6218 14.5839 26.0143 14.9761C26.4069 15.3684 26.67 15.8477 26.7549 16.3255C26.8044 16.6234 26.8446 16.9175 26.878 17.2245C26.9087 17.5096 27.1501 17.7211 27.4308 17.7211C27.4507 17.7211 27.4709 17.7199 27.4914 17.7179C27.7969 17.6848 28.0178 17.4103 27.985 17.105L27.9844 17.1044Z" fill="#D96C07"/>
<path d="M27.8523 24.8603C27.9056 24.5404 27.9487 24.2246 27.9844 23.8956C28.0175 23.5901 27.7967 23.3159 27.4908 23.2828C27.1856 23.2497 26.9105 23.4705 26.8774 23.7761C26.8443 24.0831 26.8038 24.3772 26.7543 24.6752C26.6691 25.153 26.4063 25.6319 26.0138 26.0245C25.6212 26.4167 25.1416 26.6798 24.6635 26.7648C24.3656 26.8143 24.0715 26.8544 23.7642 26.8878C23.4586 26.9209 23.2378 27.1954 23.2709 27.5007C23.3016 27.7857 23.543 27.9972 23.8237 27.9972C23.8436 27.9972 23.8638 27.996 23.8843 27.994C24.2139 27.9583 24.5297 27.9152 24.8496 27.8619L24.8551 27.861C26.307 27.6047 27.5951 26.3171 27.8514 24.8665L27.8523 24.8609V24.8603Z" fill="#D96C07"/>
<path d="M12.9919 23.8903C13.0276 24.2196 13.0707 24.5351 13.124 24.855L13.1249 24.8606C13.3812 26.3113 14.6696 27.5988 16.1211 27.8551L16.1267 27.856C16.4466 27.9093 16.7624 27.9524 17.092 27.9881C17.1125 27.9905 17.1327 27.9914 17.1526 27.9914C17.4333 27.9914 17.6744 27.7801 17.7054 27.4948C17.7385 27.1893 17.5176 26.9151 17.2121 26.882C16.9048 26.8486 16.6104 26.8084 16.3124 26.7589C15.8344 26.6737 15.3551 26.4109 14.9622 26.0186C14.5697 25.6264 14.3066 25.1471 14.2217 24.6693C14.1722 24.3714 14.132 24.0772 14.0986 23.7702C14.0655 23.4647 13.7907 23.2438 13.4852 23.2769C13.1796 23.31 12.9585 23.5845 12.9916 23.8898L12.9919 23.8903Z" fill="#D96C07"/>
<path d="M24.2995 22.6354C24.3004 22.5979 24.3025 22.3931 24.2661 22.0471L24.2656 22.0401C24.224 21.6423 24.0438 21.2658 23.7576 20.9793C23.4699 20.6922 23.092 20.5106 22.6924 20.4681C22.2416 20.4204 21.1987 20.399 20.6007 20.399H20.5964C20.0327 20.399 18.7349 20.4198 18.2771 20.4681C17.8784 20.5106 17.5002 20.6922 17.2119 20.9796C16.9263 21.2652 16.7458 21.6417 16.7045 22.038L16.7039 22.0442C16.6729 22.3404 16.6764 22.5437 16.6805 22.6283C16.677 22.7233 16.6714 22.9934 16.7033 23.3042L16.7045 23.3141C16.7446 23.7049 16.9154 24.0902 17.1855 24.3995C17.4615 24.7147 17.8253 24.9336 18.2111 25.0165C18.6667 25.1228 19.8112 25.2092 20.4666 25.2092C20.5152 25.2092 20.5612 25.2086 20.604 25.2078C21.2619 25.2122 22.3034 25.1196 22.7566 25.0179C23.1433 24.9356 23.5083 24.7162 23.7851 24.4001C24.0549 24.0913 24.2257 23.7058 24.2656 23.3174L24.2667 23.3062C24.2966 23.0144 24.3007 22.7505 24.2995 22.6345V22.6354ZM23.1588 23.1955L23.1582 23.2019C23.1412 23.366 23.0662 23.5318 22.9467 23.6686C22.8286 23.8034 22.6742 23.8989 22.5225 23.9308C22.5199 23.9314 22.5169 23.932 22.5143 23.9326C22.1739 24.0096 21.2247 24.1001 20.6025 24.0957C20.5966 24.0957 20.5908 24.0957 20.5849 24.0957C19.9686 24.1113 18.7932 24.0116 18.4613 23.9328C18.4566 23.9317 18.452 23.9308 18.4473 23.9296C18.2958 23.8977 18.1411 23.8022 18.0234 23.6677C17.9036 23.5306 17.8283 23.3648 17.8113 23.1996L17.8104 23.1923C17.7808 22.9031 17.7931 22.655 17.7931 22.6527C17.7937 22.643 17.794 22.6333 17.794 22.6239C17.794 22.6093 17.7934 22.5964 17.7922 22.5815C17.7922 22.58 17.7823 22.4306 17.8101 22.1649L17.8113 22.1549C17.8265 22.0099 17.893 21.8719 17.9985 21.7665C18.1069 21.6584 18.2478 21.5901 18.3942 21.5743C18.7587 21.5356 19.9401 21.5113 20.5955 21.5113H20.6002C21.2666 21.5113 22.2181 21.5365 22.5738 21.5743C22.7208 21.5901 22.8617 21.6584 22.9695 21.7659C23.0756 21.8719 23.1424 22.0102 23.1576 22.1558L23.1585 22.1637C23.1884 22.4505 23.1857 22.6099 23.1857 22.6113V22.6324C23.1857 22.6351 23.1893 22.8929 23.1582 23.1949L23.1588 23.1955Z" fill="#D96C07"/>
<path d="M22.571 17.9979C22.571 16.8241 21.6189 15.8726 20.4442 15.8726C19.2695 15.8726 18.3174 16.8241 18.3174 17.9979C18.3174 19.1718 19.2695 20.1233 20.4442 20.1233C21.6189 20.1233 22.571 19.1718 22.571 17.9979ZM19.4309 17.9979C19.4309 17.4395 19.8855 16.9852 20.4442 16.9852C21.0029 16.9852 21.4575 17.4395 21.4575 17.9979C21.4575 18.5563 21.0029 19.0106 20.4442 19.0106C19.8855 19.0106 19.4309 18.5563 19.4309 17.9979Z" fill="#D96C07"/>
</svg>
