<svg width="105" height="79" viewBox="0 0 105 79" fill="none" xmlns="http://www.w3.org/2000/svg">
<g id="Group" opacity="0.4">
<path id="Vector" d="M99.4167 53.5226C106.174 39.6982 107.898 25.1046 105.233 12.8299C104.917 11.3756 103.35 10.6095 102.008 11.2537C90.686 16.6915 80.2288 27.0161 73.4712 40.8402C66.2084 55.6982 64.7608 71.4451 68.3262 84.2464C80.6175 79.196 92.1539 68.3806 99.4167 53.5226Z" fill="#FFE4CA"/>
<path id="Vector_2" d="M39.7291 53.5226C32.9717 39.6982 31.2483 25.1046 33.9128 12.8299C34.2286 11.3756 35.7959 10.6095 37.1374 11.2537C48.4598 16.6915 58.917 27.0161 65.6746 40.8402C72.9373 55.6982 74.3849 71.4451 70.8195 84.2464C58.5283 79.196 46.9919 68.3806 39.7291 53.5226Z" fill="#FFE4CA"/>
<path id="Vector_3" d="M72.7627 2.52537L70.0197 2.39973C61.4992 13.0463 56.9609 26.5315 56.9609 43.2668C56.9609 61.1012 60.2148 77.0431 69.7312 87.7569C79.2476 77.0431 85.3025 61.1012 85.3025 43.2668C85.3025 27.4083 80.5149 13.046 72.7627 2.52537Z" fill="#FFD6B1"/>
<path id="Vector_4" d="M60.1502 43.2668C60.1502 27.4096 65.0105 13.0458 72.7613 2.52536C72.3319 1.94274 71.8958 1.37485 71.4488 0.816072C70.5779 -0.272024 68.8812 -0.272024 68.0104 0.816072C59.4899 11.4624 54.1582 26.5315 54.1582 43.2668C54.1582 61.1012 60.2132 77.0431 69.7296 87.7569C70.7737 86.5812 71.7683 85.3321 72.7257 84.0351C64.9577 73.5114 60.1502 59.1444 60.1502 43.2668Z" fill="#FFCC9C"/>
<path id="Vector_5" d="M108.736 86.7312C121.663 81.9569 131.831 73.6028 137.773 64.0263C138.568 62.7446 137.957 61.0894 136.519 60.6324C125.779 57.2173 112.622 57.4771 99.6952 62.2512C85.6764 67.4286 74.9032 76.8159 69.2441 87.4067C80.4286 91.7768 94.7174 91.9086 108.736 86.7312Z" fill="#FFBE80"/>
<path id="Vector_6" d="M30.363 86.7312C17.4358 81.9569 7.26848 73.6028 1.32629 64.0263C0.530979 62.7446 1.14226 61.0894 2.57966 60.6324C13.32 57.2173 26.4767 57.4771 39.4039 62.2512C53.4227 67.4286 64.196 76.8159 69.855 87.4067C58.6706 91.7768 44.3818 91.9086 30.363 86.7312Z" fill="#FFBE80"/>
<path id="Vector_7" d="M90.0229 46.1904C101.857 34.3566 116.282 27.4715 129.835 25.9682C131.22 25.8144 132.42 27.0142 132.266 28.3994C130.763 41.9524 123.878 56.3778 112.044 68.2116C99.4332 80.8225 83.8792 87.8134 69.5741 88.6601L67.8945 85.222L69.5521 82.9424C69.5521 82.9424 70.4198 81.8752 70.4251 81.8471C72.7545 69.5445 79.3918 56.8217 90.0229 46.1904Z" fill="#FFCC9C"/>
<path id="Vector_8" d="M49.124 46.1906C38.1922 35.2588 25.0488 28.5499 12.4246 26.4059L10.2168 28.7182C11.7201 42.2711 17.4019 54.2525 29.2357 66.0863C41.8465 78.6972 53.6382 86.1113 67.9431 86.9581L68.9106 82.9429C66.776 70.3026 60.0706 57.1372 49.124 46.1906Z" fill="#FFCC9C"/>
<path id="Vector_9" d="M69.5504 82.9427C56.9098 80.8083 43.1058 74.1029 32.1585 63.1558C21.2272 52.2247 14.569 39.0294 12.4244 26.4056C11.3821 26.2286 10.3454 26.0828 9.31171 25.9682C7.92655 25.8144 6.72675 27.0142 6.88051 28.3994C8.3838 41.9526 15.2689 56.3781 27.1027 68.2119C39.7135 80.8227 55.2674 87.8137 69.5723 88.6604L69.5504 82.9427Z" fill="#FFBE80"/>
</g>
</svg>
