<svg width="40" height="40" viewBox="0 0 40 40" fill="none" xmlns="http://www.w3.org/2000/svg">
<rect width="40" height="40" rx="20" fill="#FFF3EB"/>
<path d="M26.5232 25.3936H14.4768C14.0852 25.3932 13.7099 25.2374 13.433 24.9605C13.1561 24.6836 13.0004 24.3082 13 23.9167V16.4769C13.0004 16.0854 13.1561 15.71 13.433 15.4331C13.7099 15.1562 14.0852 15.0004 14.4768 15H26.5232C26.9148 15.0004 27.2901 15.1562 27.567 15.4331C27.8439 15.71 27.9996 16.0854 28 16.4769V23.9167C27.9996 24.3082 27.8439 24.6836 27.567 24.9605C27.2901 25.2374 26.9148 25.3932 26.5232 25.3936ZM14.4768 15.5645C14.2349 15.5647 14.003 15.661 13.8319 15.832C13.6609 16.0031 13.5647 16.235 13.5645 16.4769V23.9167C13.5647 24.1586 13.6609 24.3905 13.8319 24.5616C14.003 24.7327 14.2349 24.8289 14.4768 24.8292H26.5232C26.7651 24.8289 26.997 24.7327 27.1681 24.5616C27.3391 24.3905 27.4353 24.1586 27.4355 23.9167V16.4769C27.4353 16.235 27.3391 16.0031 27.1681 15.832C26.997 15.661 26.7651 15.5647 26.5232 15.5645H14.4768Z" fill="#D96C07"/>
<path d="M20.5 21.8578C20.4312 21.8578 20.3647 21.8327 20.3131 21.7872L13.5112 15.7829L13.8848 15.3596L20.5 21.1996L27.1154 15.3603L27.489 15.7836L20.6871 21.7879C20.6353 21.8333 20.5688 21.8581 20.5 21.8578Z" fill="#D96C07"/>
<path d="M13.3579 24.5073L17.9273 19.3009L18.3518 19.6734L13.7824 24.8798L13.3579 24.5073Z" fill="#D96C07"/>
<path d="M22.6626 19.668L23.0871 19.2955L27.6566 24.502L27.2321 24.8745L22.6626 19.668Z" fill="#D96C07"/>
</svg>
