<svg width="23" height="20" viewBox="0 0 23 20" fill="none" xmlns="http://www.w3.org/2000/svg">
<path id="Vector" d="M22.0903 15.406L14.1943 1.54383C13.6464 0.580238 12.6597 0.00312516 11.5557 0H11.5443C10.4445 0 9.45875 0.569821 8.90572 1.52612L0.919455 15.3362C0.363312 16.2956 0.360199 17.4436 0.910117 18.4072C1.459 19.3687 2.4447 19.9448 3.54765 19.9479L19.432 20H19.4424C20.5412 20 21.5258 19.4312 22.0799 18.477C22.636 17.5176 22.6402 16.3696 22.0913 15.405L22.0903 15.406ZM21.0029 17.8488C20.675 18.4145 20.0919 18.751 19.4413 18.751H19.4351L3.55076 18.6989C2.89812 18.6968 2.315 18.3551 1.9892 17.7863C1.6634 17.2155 1.66548 16.5342 1.99439 15.9644L9.98065 2.15428C10.3085 1.58862 10.8927 1.25006 11.5433 1.25006H11.5505C12.2032 1.25215 12.7873 1.59383 13.1131 2.1647L21.0091 16.0269C21.3339 16.5988 21.3328 17.2801 21.0029 17.8488ZM10.8771 12.1881V7.23996C10.8771 6.89411 11.1562 6.61493 11.4997 6.61493C11.8431 6.61493 12.1222 6.89515 12.1222 7.23996V12.1881C12.1222 12.534 11.8431 12.8132 11.4997 12.8132C11.1562 12.8132 10.8771 12.5329 10.8771 12.1881ZM12.3297 15.0581C12.3297 15.5196 11.9583 15.8925 11.4997 15.8925C11.0411 15.8925 10.6696 15.5185 10.6696 15.0581C10.6696 14.5976 11.0411 14.2237 11.4997 14.2237C11.9583 14.2237 12.3297 14.5976 12.3297 15.0581Z" fill="#8C8885"/>
</svg>
