<svg width="21" height="20" viewBox="0 0 21 20" fill="none" xmlns="http://www.w3.org/2000/svg">
<path id="Vector" d="M19.9629 8.69904C19.9623 8.69858 19.9618 8.69797 19.9614 8.69751L11.8021 0.539398C11.4543 0.191498 10.992 0 10.5001 0C10.0083 0 9.54589 0.191498 9.19795 0.539398L1.04298 8.69339C1.04024 8.69614 1.03734 8.69904 1.03474 8.70178C0.320559 9.42001 0.32178 10.5853 1.03825 11.3017C1.36559 11.6292 1.79776 11.8187 2.25999 11.8387C2.27892 11.8405 2.29784 11.8414 2.31692 11.8414H2.64196V17.8452C2.64196 19.0334 3.60886 20 4.79718 20H7.98933C8.313 20 8.57533 19.7375 8.57533 19.4141V14.707C8.57533 14.1649 9.01651 13.7239 9.5587 13.7239H11.4415C11.9837 13.7239 12.4247 14.1649 12.4247 14.707V19.4141C12.4247 19.7375 12.6871 20 13.0107 20H16.2029C17.3914 20 18.3581 19.0334 18.3581 17.8452V11.8414H18.6597C19.1513 11.8414 19.6137 11.6499 19.9618 11.3019C20.6791 10.5844 20.6794 9.41696 19.9629 8.69904ZM19.133 10.4733C19.0065 10.5998 18.8384 10.6696 18.6597 10.6696H17.7721C17.4484 10.6696 17.1861 10.9319 17.1861 11.2555V17.8452C17.1861 18.3871 16.7451 18.8281 16.2029 18.8281H13.5967V14.707C13.5967 13.5188 12.63 12.552 11.4415 12.552H9.5587C8.37023 12.552 7.40334 13.5188 7.40334 14.707V18.8281H4.79718C4.25513 18.8281 3.81395 18.3871 3.81395 17.8452V11.2555C3.81395 10.9319 3.55163 10.6696 3.22796 10.6696H2.35568C2.34652 10.6689 2.33752 10.6685 2.32821 10.6683C2.15363 10.6653 1.98989 10.596 1.86719 10.4732C1.60624 10.2122 1.60624 9.7876 1.86719 9.52652C1.86735 9.52652 1.86735 9.52637 1.8675 9.52621L1.86796 9.52576L10.0269 1.36795C10.1532 1.24146 10.3213 1.17188 10.5001 1.17188C10.6788 1.17188 10.8468 1.24146 10.9733 1.36795L19.1304 9.52408C19.1317 9.5253 19.133 9.52652 19.1343 9.52774C19.3938 9.78912 19.3934 10.2129 19.133 10.4733Z" fill="#8C8885"/>
</svg>
