<svg width="32" height="32" viewBox="0 0 32 32" fill="none" xmlns="http://www.w3.org/2000/svg">
<rect width="32" height="32" rx="16" fill="#F8F8F8"/>
<g clip-path="url(#clip0_109_16577)">
<path d="M22.5998 10.9139C22.3938 10.7076 22.0597 10.7073 21.8537 10.913L15.5238 17.2262L13.24 14.7458C13.0427 14.5316 12.709 14.5177 12.4945 14.715C12.2801 14.9123 12.2663 15.2462 12.4637 15.4606L15.1195 18.3448C15.2167 18.4505 15.3528 18.5119 15.4964 18.5149C15.5002 18.515 15.5039 18.515 15.5076 18.515C15.6471 18.515 15.7813 18.4596 15.8801 18.3612L22.5987 11.6602C22.8052 11.4544 22.8056 11.1202 22.5998 10.9139Z" fill="#046C1E"/>
<path d="M22.4723 15.4723C22.1809 15.4723 21.9447 15.7085 21.9447 16C21.9447 19.2781 19.2781 21.9447 16 21.9447C12.7221 21.9447 10.0553 19.2781 10.0553 16C10.0553 12.7221 12.7221 10.0553 16 10.0553C16.2914 10.0553 16.5277 9.81908 16.5277 9.52765C16.5277 9.2362 16.2914 9 16 9C12.1402 9 9 12.1402 9 16C9 19.8597 12.1402 23 16 23C19.8597 23 23 19.8597 23 16C23 15.7086 22.7638 15.4723 22.4723 15.4723Z" fill="#046C1E"/>
</g>
<defs>
<clipPath id="clip0_109_16577">
<rect width="14" height="14" fill="white" transform="translate(9 9)"/>
</clipPath>
</defs>
</svg>
