<svg width="32" height="32" viewBox="0 0 32 32" fill="none" xmlns="http://www.w3.org/2000/svg">
<g id="master/ avatar">
<rect width="32" height="32" rx="16" fill="#FFF3EB"/>
<g id="Group 14">
<path id="Vector" d="M21.4707 11.2698L18.5038 8.46295C18.1883 8.1644 17.7752 8 17.3408 8H11.6923C10.7592 8 10 8.75917 10 9.69231V22.0615C10 22.9947 10.7592 23.7538 11.6923 23.7538H20.3077C21.2408 23.7538 22 22.9947 22 22.0615V12.4991C22 12.0361 21.8071 11.588 21.4707 11.2698ZM20.5742 11.6923H18.2769C18.1921 11.6923 18.1231 11.6233 18.1231 11.5385V9.37342L20.5742 11.6923ZM20.3077 22.8308H11.6923C11.2682 22.8308 10.9231 22.4857 10.9231 22.0615V9.69231C10.9231 9.26815 11.2682 8.92308 11.6923 8.92308H17.2V11.5385C17.2 12.1323 17.6831 12.6154 18.2769 12.6154H21.0769V22.0615C21.0769 22.4857 20.7318 22.8308 20.3077 22.8308Z" fill="#D96C07"/>
<path id="Vector_2" d="M19.2923 14.1539H12.5231C12.2682 14.1539 12.0615 14.3605 12.0615 14.6154C12.0615 14.8703 12.2682 15.077 12.5231 15.077H19.2923C19.5472 15.077 19.7538 14.8703 19.7538 14.6154C19.7538 14.3605 19.5472 14.1539 19.2923 14.1539Z" fill="#D96C07"/>
<path id="Vector_3" d="M19.2923 16.6152H12.5231C12.2682 16.6152 12.0615 16.8219 12.0615 17.0768C12.0615 17.3317 12.2682 17.5383 12.5231 17.5383H19.2923C19.5472 17.5383 19.7538 17.3317 19.7538 17.0768C19.7538 16.8219 19.5472 16.6152 19.2923 16.6152Z" fill="#D96C07"/>
<path id="Vector_4" d="M14.7606 19.077H12.5231C12.2682 19.077 12.0615 19.2836 12.0615 19.5385C12.0615 19.7934 12.2682 20 12.5231 20H14.7606C15.0155 20 15.2221 19.7934 15.2221 19.5385C15.2221 19.2836 15.0155 19.077 14.7606 19.077Z" fill="#D96C07"/>
</g>
</g>
</svg>
