<svg width="32" height="32" viewBox="0 0 32 32" fill="none" xmlns="http://www.w3.org/2000/svg">
<g id="master/ avatar">
<rect width="32" height="32" rx="16" fill="#F8F8F8"/>
<g id="Group 10">
<path id="Vector" d="M16 8C14.4178 8 12.871 8.46919 11.5554 9.34824C10.2398 10.2273 9.21447 11.4767 8.60897 12.9385C8.00347 14.4003 7.84504 16.0089 8.15372 17.5607C8.4624 19.1126 9.22433 20.538 10.3431 21.6569C11.462 22.7757 12.8874 23.5376 14.4393 23.8463C15.9911 24.155 17.5997 23.9965 19.0615 23.391C20.5233 22.7855 21.7727 21.7602 22.6518 20.4446C23.5308 19.129 24 17.5822 24 16C23.9976 13.879 23.154 11.8455 21.6542 10.3458C20.1545 8.84598 18.121 8.00236 16 8ZM16 22.6667C14.6815 22.6667 13.3925 22.2757 12.2962 21.5431C11.1999 20.8106 10.3454 19.7694 9.84081 18.5512C9.33622 17.333 9.2042 15.9926 9.46143 14.6994C9.71867 13.4062 10.3536 12.2183 11.286 11.286C12.2183 10.3536 13.4062 9.71867 14.6994 9.46143C15.9926 9.2042 17.3331 9.33622 18.5512 9.8408C19.7694 10.3454 20.8106 11.1999 21.5431 12.2962C22.2757 13.3925 22.6667 14.6815 22.6667 16C22.6647 17.7675 21.9616 19.462 20.7118 20.7118C19.462 21.9616 17.7675 22.6647 16 22.6667Z" fill="#B91C1C"/>
<path id="Vector_2" d="M18.4714 13.5287C18.4095 13.4667 18.336 13.4176 18.2552 13.3841C18.1743 13.3506 18.0876 13.3333 18.0001 13.3333C17.9125 13.3333 17.8258 13.3506 17.7449 13.3841C17.6641 13.4176 17.5906 13.4667 17.5287 13.5287L16.0001 15.0573L14.4714 13.5287C14.3457 13.4072 14.1773 13.34 14.0025 13.3416C13.8277 13.3431 13.6604 13.4132 13.5368 13.5368C13.4132 13.6604 13.3431 13.8276 13.3416 14.0024C13.3401 14.1772 13.4073 14.3456 13.5287 14.4713L15.0573 16L13.5287 17.5287C13.465 17.5902 13.4143 17.6637 13.3793 17.7451C13.3444 17.8264 13.326 17.9139 13.3252 18.0024C13.3245 18.0909 13.3413 18.1787 13.3748 18.2606C13.4084 18.3426 13.4579 18.417 13.5205 18.4796C13.5831 18.5422 13.6575 18.5917 13.7394 18.6252C13.8213 18.6587 13.9091 18.6756 13.9977 18.6748C14.0862 18.6741 14.1737 18.6557 14.255 18.6207C14.3363 18.5858 14.4099 18.535 14.4714 18.4713L16.0001 16.9427L17.5287 18.4713C17.6545 18.5928 17.8229 18.66 17.9977 18.6585C18.1725 18.6569 18.3397 18.5868 18.4633 18.4632C18.5869 18.3396 18.657 18.1724 18.6585 17.9976C18.66 17.8228 18.5928 17.6544 18.4714 17.5287L16.9428 16L18.4714 14.4713C18.5333 14.4095 18.5824 14.336 18.616 14.2551C18.6495 14.1742 18.6667 14.0875 18.6667 14C18.6667 13.9125 18.6495 13.8258 18.616 13.7449C18.5824 13.664 18.5333 13.5905 18.4714 13.5287Z" fill="#B91C1C"/>
</g>
</g>
</svg>
