<svg width="32" height="32" viewBox="0 0 32 32" fill="none" xmlns="http://www.w3.org/2000/svg">
<g id="master/ avatar">
<rect width="32" height="32" rx="16" fill="#F8F8F8"/>
<g id="Group">
<g id="Group_2">
<path id="Vector" d="M16 23C19.8593 23 23 19.8593 23 16C23 12.1407 19.8594 9 16 9C12.1406 9 9 12.1407 9 16C9 19.8593 12.1407 23 16 23ZM16 9.93332C19.346 9.93332 22.0667 12.654 22.0667 16C22.0667 19.346 19.346 22.0667 16 22.0667C12.654 22.0667 9.93332 19.346 9.93332 16C9.93332 12.654 12.654 9.93332 16 9.93332Z" fill="#8F7300"/>
<path id="Vector_2" d="M18.0415 18.231C18.1279 18.3009 18.2305 18.3336 18.3332 18.3336C18.4709 18.3336 18.6062 18.273 18.6972 18.1586C18.8582 17.958 18.8255 17.664 18.6249 17.503L16.4665 15.7763V12.267C16.4665 12.0103 16.2565 11.8003 15.9999 11.8003C15.7432 11.8003 15.5332 12.0103 15.5332 12.267V16.0003C15.5332 16.1426 15.5985 16.2756 15.7082 16.3643L18.0415 18.231Z" fill="#8F7300"/>
</g>
</g>
</g>
</svg>
