<svg width="40" height="40" viewBox="0 0 40 40" fill="none" xmlns="http://www.w3.org/2000/svg">
<rect width="40" height="40" rx="20" fill="#FFF3EB"/>
<path d="M27.9477 13.8174L21.6016 27.6632C21.5485 27.7792 21.4585 27.8743 21.3456 27.9337C21.2327 27.9931 21.1033 28.0134 20.9776 27.9914C20.852 27.9694 20.7372 27.9064 20.6511 27.8122C20.5651 27.718 20.5127 27.598 20.5021 27.4708L19.9656 21.0344L13.5292 20.4979C13.402 20.4874 13.282 20.435 13.1878 20.3489C13.0936 20.2629 13.0306 20.1481 13.0086 20.0224C12.9866 19.8968 13.0069 19.7674 13.0663 19.6545C13.1257 19.5416 13.2208 19.4516 13.3368 19.3985L27.1827 13.0525C27.2897 13.0034 27.4092 12.9883 27.5251 13.0091C27.641 13.0299 27.7477 13.0857 27.831 13.169C27.9142 13.2522 27.97 13.359 27.9909 13.4749C28.0117 13.5907 27.9967 13.7104 27.9477 13.8174Z" fill="#D96C07"/>
</svg>
