<svg width="19" height="21" viewBox="0 0 19 21" fill="none" xmlns="http://www.w3.org/2000/svg">
<g id="Group">
<path id="Vector" d="M15.6999 10.5144V8.59997C15.6999 5.8071 13.8435 3.43995 11.3 2.66679V1.79999C11.3 0.807478 10.4925 0 9.49999 0C8.50747 0 7.7 0.807478 7.7 1.79999V2.66679C5.15642 3.43995 3.30003 5.80706 3.30003 8.59997V10.5144C3.30003 12.9677 2.36491 15.294 0.666966 17.0647C0.500567 17.2382 0.453807 17.4942 0.548126 17.7153C0.642446 17.9365 0.859644 18.0799 1.10004 18.0799H6.56037C6.83909 19.4476 8.05124 20.4799 9.49999 20.4799C10.9488 20.4799 12.1608 19.4476 12.4396 18.0799H17.8999C18.1403 18.0799 18.3575 17.9365 18.4518 17.7153C18.5461 17.4942 18.4994 17.2382 18.333 17.0647C16.6351 15.294 15.6999 12.9677 15.6999 10.5144ZM8.89999 1.79999C8.89999 1.46916 9.16915 1.2 9.49999 1.2C9.83083 1.2 10.1 1.46916 10.1 1.79999V2.42911C9.90251 2.41007 9.70239 2.39999 9.49999 2.39999C9.29759 2.39999 9.09747 2.41007 8.89999 2.42911V1.79999ZM9.49999 19.2799C8.71779 19.2799 8.05088 18.7783 7.8032 18.0799H11.1968C10.9491 18.7783 10.2822 19.2799 9.49999 19.2799ZM2.39323 16.8799C3.75967 15.0483 4.50002 12.8316 4.50002 10.5144V8.59997C4.50002 5.84298 6.74301 3.59999 9.49999 3.59999C12.257 3.59999 14.5 5.84298 14.5 8.59997V10.5144C14.5 12.8316 15.2403 15.0483 16.6068 16.8799H2.39323Z" fill="#8C8885"/>
<path id="Vector_2" d="M17.3 8.59988C17.3 8.93124 17.5686 9.19988 17.9 9.19988C18.2314 9.19988 18.5 8.93124 18.5 8.59988C18.5 6.19589 17.5638 3.93578 15.864 2.23591C15.6297 2.00163 15.2498 2.00159 15.0155 2.23591C14.7811 2.47022 14.7811 2.8501 15.0155 3.08442C16.4887 4.55766 17.3 6.51641 17.3 8.59988Z" fill="#8C8885"/>
<path id="Vector_3" d="M1.1 9.19986C1.43135 9.19986 1.69999 8.93122 1.69999 8.59986C1.69999 6.51643 2.51135 4.55767 3.98454 3.08444C4.21886 2.85012 4.21886 2.47024 3.98454 2.23592C3.75026 2.0016 3.37034 2.0016 3.13602 2.23592C1.43615 3.93579 0.5 6.19587 0.5 8.59986C0.5 8.93122 0.768638 9.19986 1.1 9.19986Z" fill="#8C8885"/>
</g>
</svg>
