<svg width="17" height="18" viewBox="0 0 17 18" fill="none" xmlns="http://www.w3.org/2000/svg">
<path d="M13.1518 10.9142C12.8237 10.5726 12.4281 10.39 12.0087 10.39C11.5928 10.39 11.1937 10.5693 10.8521 10.9108L9.78348 11.9761C9.69556 11.9288 9.60763 11.8848 9.52308 11.8408C9.40134 11.78 9.28636 11.7225 9.18828 11.6616C8.18726 11.0258 7.27755 10.1973 6.40505 9.12523C5.98232 8.5909 5.69825 8.14112 5.49195 7.68457C5.76926 7.43093 6.02628 7.16715 6.27654 6.91351C6.37123 6.81882 6.46592 6.72075 6.56061 6.62606C7.27079 5.91588 7.27079 4.99602 6.56061 4.28584L5.63737 3.3626C5.53254 3.25776 5.42432 3.14954 5.32286 3.04132C5.11995 2.83165 4.9069 2.61521 4.68708 2.4123C4.35904 2.08765 3.96675 1.91518 3.55417 1.91518C3.14159 1.91518 2.74253 2.08765 2.40435 2.4123C2.40097 2.41569 2.40097 2.41569 2.39759 2.41907L1.24777 3.57903C0.814898 4.01191 0.568025 4.53947 0.513916 5.15158C0.432752 6.13908 0.723588 7.05893 0.946789 7.6609C1.49464 9.13875 2.31304 10.5084 3.53388 11.9761C5.01512 13.7448 6.79734 15.1415 8.83319 16.1256C9.61101 16.4942 10.6492 16.9305 11.8092 17.0049C11.8802 17.0083 11.9546 17.0116 12.0222 17.0116C12.8034 17.0116 13.4595 16.731 13.9736 16.173C13.9769 16.1662 13.9837 16.1628 13.9871 16.156C14.1629 15.943 14.3658 15.7502 14.5789 15.5439C14.7243 15.4053 14.8731 15.2599 15.0185 15.1077C15.3533 14.7593 15.5292 14.3535 15.5292 13.9376C15.5292 13.5182 15.35 13.1158 15.0084 12.7776L13.1518 10.9142ZM14.3625 14.4753C14.3591 14.4753 14.3591 14.4787 14.3625 14.4753C14.2306 14.6173 14.0953 14.7458 13.9499 14.8879C13.7301 15.0975 13.5069 15.3174 13.2972 15.5642C12.9556 15.9295 12.5532 16.1019 12.0256 16.1019C11.9749 16.1019 11.9208 16.1019 11.8701 16.0986C10.8657 16.0343 9.93228 15.642 9.23225 15.3072C7.31814 14.3806 5.63737 13.0651 4.24068 11.3978C3.08748 10.0079 2.31643 8.72279 1.80577 7.34301C1.49126 6.50093 1.37628 5.84486 1.42701 5.22598C1.46083 4.83031 1.61301 4.50227 1.8937 4.22158L3.0469 3.06838C3.21261 2.91281 3.38846 2.82827 3.56094 2.82827C3.77399 2.82827 3.94646 2.95678 4.05468 3.065C4.05806 3.06838 4.06144 3.07176 4.06483 3.07514C4.27112 3.26791 4.46726 3.46743 4.67355 3.68049C4.77839 3.78871 4.88661 3.89693 4.99483 4.00853L5.91806 4.93176C6.27654 5.29024 6.27654 5.62166 5.91806 5.98013C5.81999 6.0782 5.7253 6.17628 5.62723 6.27097C5.34315 6.5618 5.07261 6.83235 4.77839 7.09613C4.77163 7.1029 4.76486 7.10628 4.76148 7.11304C4.47064 7.40388 4.52475 7.68795 4.58563 7.88072C4.58901 7.89086 4.59239 7.90101 4.59577 7.91115C4.83588 8.49283 5.17406 9.04068 5.6881 9.69337L5.69148 9.69676C6.62486 10.8466 7.60897 11.7428 8.69454 12.4293C8.83319 12.5172 8.97523 12.5882 9.1105 12.6559C9.23225 12.7167 9.34723 12.7742 9.4453 12.8351C9.45883 12.8419 9.47236 12.852 9.48588 12.8588C9.60087 12.9163 9.70908 12.9433 9.82068 12.9433C10.1014 12.9433 10.2772 12.7675 10.3347 12.71L11.4913 11.5534C11.6063 11.4384 11.7889 11.2997 12.002 11.2997C12.2116 11.2997 12.3841 11.4316 12.4889 11.5466C12.4923 11.55 12.4923 11.55 12.4957 11.5534L14.3591 13.4168C14.7074 13.7617 14.7074 14.1168 14.3625 14.4753Z" fill="#D96C07"/>
<path d="M9.14777 4.79987C10.0338 4.94867 10.8387 5.36802 11.4812 6.01057C12.1238 6.65311 12.5397 7.45799 12.6919 8.34403C12.7291 8.56723 12.9219 8.72279 13.1417 8.72279C13.1688 8.72279 13.1924 8.71941 13.2195 8.71603C13.4697 8.67545 13.6354 8.43872 13.5949 8.18846C13.4122 7.11642 12.905 6.13908 12.1305 5.36464C11.3561 4.5902 10.3788 4.08293 9.30671 3.90031C9.05646 3.85973 8.82311 4.02544 8.77915 4.27231C8.73519 4.51918 8.89751 4.75929 9.14777 4.79987Z" fill="#D96C07"/>
<path d="M16.4931 8.05657C16.1922 6.29126 15.3602 4.68489 14.0819 3.40656C12.8036 2.12823 11.1972 1.2963 9.4319 0.995318C9.18503 0.951354 8.95168 1.12045 8.90772 1.36732C8.86714 1.61757 9.03285 1.85092 9.2831 1.89488C10.859 2.16205 12.2963 2.90943 13.4394 4.04911C14.5824 5.19216 15.3264 6.62944 15.5936 8.20537C15.6308 8.42857 15.8235 8.58413 16.0434 8.58413C16.0704 8.58413 16.0941 8.58075 16.1211 8.57737C16.368 8.54017 16.5371 8.30344 16.4931 8.05657Z" fill="#D96C07"/>
</svg>
