<svg width="16" height="18" viewBox="0 0 16 18" fill="none" xmlns="http://www.w3.org/2000/svg">
<path d="M12.6518 10.9142C12.3237 10.5726 11.9281 10.39 11.5087 10.39C11.0928 10.39 10.6937 10.5693 10.3521 10.9108L9.28348 11.9761C9.19556 11.9287 9.10763 11.8848 9.02308 11.8408C8.90134 11.7799 8.78636 11.7225 8.68828 11.6616C7.68726 11.0258 6.77755 10.1973 5.90505 9.12521C5.48232 8.59088 5.19825 8.1411 4.99195 7.68455C5.26926 7.43092 5.52628 7.16714 5.77654 6.9135C5.87123 6.81881 5.96592 6.72073 6.06061 6.62604C6.77079 5.91586 6.77079 4.996 6.06061 4.28582L5.13737 3.36258C5.03254 3.25775 4.92432 3.14953 4.82286 3.04131C4.61995 2.83164 4.4069 2.6152 4.18708 2.41229C3.85904 2.08763 3.46675 1.91516 3.05417 1.91516C2.64159 1.91516 2.24253 2.08763 1.90435 2.41229C1.90097 2.41567 1.90097 2.41567 1.89759 2.41905L0.747771 3.57902C0.314898 4.01189 0.0680248 4.53946 0.0139157 5.15157C-0.067248 6.13906 0.223588 7.05892 0.446789 7.66088C0.994643 9.13874 1.81304 10.5084 3.03388 11.9761C4.51512 13.7448 6.29734 15.1415 8.33319 16.1256C9.11101 16.4942 10.1492 16.9305 11.3092 17.0049C11.3802 17.0082 11.4546 17.0116 11.5222 17.0116C12.3034 17.0116 12.9595 16.7309 13.4736 16.1729C13.4769 16.1662 13.4837 16.1628 13.4871 16.156C13.6629 15.943 13.8658 15.7502 14.0789 15.5439C14.2243 15.4053 14.3731 15.2598 14.5185 15.1077C14.8533 14.7593 15.0292 14.3535 15.0292 13.9375C15.0292 13.5182 14.85 13.1158 14.5084 12.7776L12.6518 10.9142ZM13.8625 14.4753C13.8591 14.4753 13.8591 14.4786 13.8625 14.4753C13.7306 14.6173 13.5953 14.7458 13.4499 14.8878C13.2301 15.0975 13.0069 15.3173 12.7972 15.5642C12.4556 15.9294 12.0532 16.1019 11.5256 16.1019C11.4749 16.1019 11.4208 16.1019 11.3701 16.0985C10.3657 16.0343 9.43228 15.642 8.73225 15.3072C6.81814 14.3806 5.13737 13.065 3.74068 11.3978C2.58748 10.0079 1.81643 8.72278 1.30577 7.34299C0.991262 6.50092 0.87628 5.84484 0.927007 5.22597C0.960825 4.83029 1.11301 4.50226 1.3937 4.22157L2.5469 3.06836C2.71261 2.9128 2.88846 2.82825 3.06094 2.82825C3.27399 2.82825 3.44646 2.95676 3.55468 3.06498C3.55806 3.06836 3.56144 3.07175 3.56483 3.07513C3.77112 3.26789 3.96726 3.46742 4.17355 3.68047C4.27839 3.78869 4.38661 3.89691 4.49483 4.00851L5.41806 4.93175C5.77654 5.29022 5.77654 5.62164 5.41806 5.98012C5.31999 6.07819 5.2253 6.17626 5.12723 6.27095C4.84315 6.56179 4.57261 6.83233 4.27839 7.09612C4.27163 7.10288 4.26486 7.10626 4.26148 7.11303C3.97064 7.40386 4.02475 7.68794 4.08563 7.8807C4.08901 7.89085 4.09239 7.90099 4.09577 7.91114C4.33588 8.49281 4.67406 9.04067 5.1881 9.69336L5.19148 9.69674C6.12486 10.8466 7.10897 11.7427 8.19454 12.4293C8.33319 12.5172 8.47523 12.5882 8.6105 12.6558C8.73225 12.7167 8.84723 12.7742 8.9453 12.8351C8.95883 12.8418 8.97236 12.852 8.98588 12.8587C9.10087 12.9162 9.20908 12.9433 9.32068 12.9433C9.60137 12.9433 9.77723 12.7674 9.83472 12.7099L10.9913 11.5534C11.1063 11.4384 11.2889 11.2997 11.502 11.2997C11.7116 11.2997 11.8841 11.4316 11.9889 11.5466C11.9923 11.55 11.9923 11.55 11.9957 11.5534L13.8591 13.4167C14.2074 13.7617 14.2074 14.1168 13.8625 14.4753Z" fill="#8C8885"/>
<path d="M8.64777 4.79984C9.5338 4.94864 10.3387 5.36799 10.9812 6.01054C11.6238 6.65308 12.0397 7.45796 12.1919 8.344C12.2291 8.5672 12.4219 8.72276 12.6417 8.72276C12.6688 8.72276 12.6924 8.71938 12.7195 8.716C12.9697 8.67541 13.1354 8.43869 13.0949 8.18843C12.9122 7.11639 12.405 6.13905 11.6305 5.36461C10.8561 4.59017 9.87875 4.0829 8.80671 3.90028C8.55646 3.8597 8.32311 4.0254 8.27915 4.27228C8.23519 4.51915 8.39751 4.75926 8.64777 4.79984Z" fill="#8C8885"/>
<path d="M15.9929 8.05655C15.6919 6.29124 14.86 4.68487 13.5817 3.40654C12.3033 2.12821 10.697 1.29629 8.93166 0.995303C8.68479 0.951339 8.45144 1.12043 8.40748 1.3673C8.36689 1.61756 8.5326 1.8509 8.78286 1.89487C10.3588 2.16203 11.7961 2.90942 12.9391 4.04909C14.0822 5.19215 14.8262 6.62942 15.0933 8.20535C15.1305 8.42855 15.3233 8.58412 15.5431 8.58412C15.5702 8.58412 15.5938 8.58074 15.6209 8.57735C15.8678 8.54015 16.0369 8.30343 15.9929 8.05655Z" fill="#8C8885"/>
</svg>
