<svg width="16" height="20" viewBox="0 0 16 20" fill="none" xmlns="http://www.w3.org/2000/svg">
<g id="Group 13">
<path id="Vector" d="M7.9999 10.5169C5.28469 10.5169 3.07483 8.30702 3.07483 5.59181C3.07483 2.8766 5.28469 0.666748 7.9999 0.666748C10.7151 0.666748 12.925 2.8766 12.925 5.59181C12.925 8.30702 10.7151 10.5169 7.9999 10.5169ZM7.9999 1.95155C5.99561 1.95155 4.35963 3.58752 4.35963 5.59181C4.35963 7.5961 5.99561 9.23208 7.9999 9.23208C10.0042 9.23208 11.6402 7.5961 11.6402 5.59181C11.6402 3.58752 10.0042 1.95155 7.9999 1.95155Z" fill="#8C8885"/>
<path id="Vector_2" d="M15.3576 19.0823C15.0064 19.0823 14.7152 18.7911 14.7152 18.4399C14.7152 15.4848 11.7003 13.0866 8.00006 13.0866C4.29979 13.0866 1.2848 15.4848 1.2848 18.4399C1.2848 18.7911 0.993579 19.0823 0.6424 19.0823C0.291221 19.0823 0 18.7911 0 18.4399C0 14.7825 3.58887 11.8018 8.00006 11.8018C12.4112 11.8018 16 14.7825 16 18.4399C16 18.7911 15.7088 19.0823 15.3576 19.0823Z" fill="#8C8885"/>
</g>
</svg>
