<svg width="40" height="40" viewBox="0 0 40 40" fill="none" xmlns="http://www.w3.org/2000/svg">
<rect width="40" height="40" rx="20" fill="#FFF3EB"/>
<path d="M20.4998 21.2345C17.9543 21.2345 15.8826 19.1627 15.8826 16.6172C15.8826 14.0717 17.9543 12 20.4998 12C23.0453 12 25.1171 14.0717 25.1171 16.6172C25.1171 19.1627 23.0453 21.2345 20.4998 21.2345ZM20.4998 13.2045C18.6208 13.2045 17.0871 14.7382 17.0871 16.6172C17.0871 18.4963 18.6208 20.03 20.4998 20.03C22.3788 20.03 23.9126 18.4963 23.9126 16.6172C23.9126 14.7382 22.3788 13.2045 20.4998 13.2045Z" fill="#D96C07"/>
<path d="M27.3977 29.2646C27.0685 29.2646 26.7955 28.9916 26.7955 28.6623C26.7955 25.892 23.969 23.6436 20.5001 23.6436C17.0311 23.6436 14.2045 25.892 14.2045 28.6623C14.2045 28.9916 13.9315 29.2646 13.6023 29.2646C13.273 29.2646 13 28.9916 13 28.6623C13 25.2335 16.3646 22.4391 20.5001 22.4391C24.6355 22.4391 28 25.2335 28 28.6623C28 28.9916 27.727 29.2646 27.3977 29.2646Z" fill="#D96C07"/>
</svg>
