<svg width="40" height="40" viewBox="0 0 40 40" fill="none" xmlns="http://www.w3.org/2000/svg">
<rect width="40" height="40" rx="20" fill="#FFF3EB"/>
<path d="M28 11.1116V29.6668C28 29.8509 27.8474 30.0001 27.6591 30.0001H13.3409C13.1526 30.0001 13 29.8509 13 29.6668V11.1116C13 10.4196 13.8007 10.016 14.3766 10.4186C14.6136 10.5843 14.9319 10.5843 15.1689 10.4186L15.4118 10.2488C15.8859 9.91726 16.5231 9.91722 16.9973 10.2488L17.2402 10.4186C17.4772 10.5843 17.7956 10.5843 18.0325 10.4186L18.2754 10.2488C18.7496 9.91726 19.3867 9.91722 19.8609 10.2488L20.1038 10.4186C20.3408 10.5843 20.6592 10.5843 20.8962 10.4186L21.1391 10.2488C21.6132 9.9173 22.2504 9.91726 22.7246 10.2488L22.9675 10.4187C23.2045 10.5843 23.5228 10.5843 23.7598 10.4187C24.027 10.2319 24.194 10.0913 24.528 10.0261C24.7128 9.98997 24.8922 10.1071 24.9291 10.2876C24.966 10.4681 24.8463 10.6437 24.6617 10.6798C24.4858 10.7141 24.4114 10.7826 24.1564 10.961C23.6821 11.2925 23.0451 11.2925 22.5709 10.961L22.328 10.7911C22.0909 10.6254 21.7725 10.6255 21.5357 10.7911L21.2928 10.961C20.8186 11.2925 20.1815 11.2925 19.7073 10.961L19.4644 10.7911C19.2274 10.6254 18.909 10.6254 18.672 10.7911L18.4291 10.9609C17.955 11.2924 17.3179 11.2925 16.8437 10.9609L16.6007 10.7911C16.3638 10.6254 16.0455 10.6254 15.8084 10.7911L15.5655 10.9609C15.0914 11.2924 14.4542 11.2925 13.98 10.9609C13.855 10.8735 13.6818 10.9609 13.6818 11.1116V29.3335H27.3182C27.3182 9.83643 27.3682 11.0236 27.2156 10.9469C27.1849 10.9315 27.1044 10.9019 27.02 10.9609C26.8668 11.068 26.6539 11.0334 26.5444 10.8836C26.252 10.4838 26.9601 10.0688 27.5275 10.3541C27.8189 10.5006 28 10.7909 28 11.1116ZM21.8636 18.9585C22.0519 18.9585 22.2045 18.8092 22.2045 18.6251V16.7085C22.2045 16.5244 22.0519 16.3751 21.8636 16.3751H19.733C19.5447 16.3751 19.392 16.5244 19.392 16.7085C19.392 16.8925 19.5447 17.0418 19.733 17.0418H21.5227V18.2918H19.733C19.5447 18.2918 19.392 18.441 19.392 18.6251V20.5418C19.392 20.7259 19.5447 20.8751 19.733 20.8751H21.8636C22.0519 20.8751 22.2045 20.7259 22.2045 20.5418C22.2045 20.3577 22.0519 20.2085 21.8636 20.2085H20.0739V18.9585H21.8636ZM15.3864 16.7085C15.3864 16.5244 15.539 16.3751 15.7273 16.3751H17.858C18.0462 16.3751 18.1989 16.5244 18.1989 16.7085V20.5418C18.1989 20.7259 18.0462 20.8751 17.858 20.8751H15.7273C15.539 20.8751 15.3864 20.7259 15.3864 20.5418V16.7085ZM16.0682 20.2085H17.517V17.0418H16.0682V20.2085ZM23.19 14.2085C23.19 14.0244 23.0373 13.8751 22.8491 13.8751H15.7273C15.539 13.8751 15.3864 14.0244 15.3864 14.2085C15.3864 14.3926 15.539 14.5418 15.7273 14.5418H22.8491C23.0373 14.5418 23.19 14.3926 23.19 14.2085ZM24.25 14.2085C24.25 14.3926 24.4026 14.5418 24.5909 14.5418H25.2727C25.461 14.5418 25.6136 14.3926 25.6136 14.2085C25.6136 14.0244 25.461 13.8751 25.2727 13.8751H24.5909C24.4026 13.8751 24.25 14.0243 24.25 14.2085ZM15.7273 23.5835H18.8381C19.0263 23.5835 19.179 23.4342 19.179 23.2501C19.179 23.066 19.0263 22.9168 18.8381 22.9168H15.7273C15.539 22.9168 15.3864 23.066 15.3864 23.2501C15.3864 23.4342 15.539 23.5835 15.7273 23.5835ZM15.7273 26.5835H23.0994C23.2877 26.5835 23.4403 26.4342 23.4403 26.2501C23.4403 26.066 23.2877 25.9168 23.0994 25.9168H15.7273C15.539 25.9168 15.3864 26.066 15.3864 26.2501C15.3864 26.4342 15.539 26.5835 15.7273 26.5835Z" fill="#D96C07"/>
</svg>
